<svg xmlns="http://www.w3.org/2000/svg" xmlns:xlink="http://www.w3.org/1999/xlink" width="500" zoomAndPan="magnify" viewBox="0 0 375 374.999991" height="500" preserveAspectRatio="xMidYMid meet" version="1.0"><path fill="#ff2d20" d="M 353.210938 96.652344 C 353.332031 97.097656 353.390625 97.554688 353.394531 98.019531 L 353.394531 169.925781 C 353.394531 170.867188 353.160156 171.742188 352.6875 172.554688 C 352.21875 173.367188 351.574219 174.007812 350.761719 174.476562 L 290.433594 209.222656 L 290.433594 278.09375 C 290.433594 279.96875 289.4375 281.699219 287.8125 282.644531 L 161.882812 355.164062 C 161.59375 355.328125 161.28125 355.433594 160.964844 355.546875 C 160.847656 355.585938 160.738281 355.65625 160.613281 355.691406 C 159.71875 355.925781 158.820312 355.925781 157.925781 355.691406 C 157.78125 355.648438 157.652344 355.570312 157.511719 355.519531 C 157.226562 355.414062 156.925781 355.324219 156.648438 355.164062 L 30.746094 282.644531 C 29.933594 282.175781 29.289062 281.535156 28.820312 280.722656 C 28.347656 279.910156 28.113281 279.035156 28.113281 278.09375 L 28.113281 62.375 C 28.113281 61.902344 28.179688 61.445312 28.296875 61 C 28.335938 60.847656 28.425781 60.710938 28.480469 60.558594 C 28.578125 60.285156 28.667969 60.003906 28.8125 59.746094 C 28.910156 59.578125 29.054688 59.4375 29.175781 59.28125 C 29.324219 59.070312 29.460938 58.855469 29.640625 58.671875 C 29.789062 58.519531 29.984375 58.410156 30.15625 58.277344 C 30.347656 58.121094 30.515625 57.953125 30.734375 57.828125 L 30.738281 57.828125 L 93.695312 21.566406 C 94.503906 21.097656 95.378906 20.863281 96.316406 20.863281 C 97.25 20.863281 98.125 21.097656 98.933594 21.566406 L 161.890625 57.828125 L 161.902344 57.828125 C 162.113281 57.957031 162.289062 58.121094 162.480469 58.273438 C 162.648438 58.402344 162.839844 58.519531 162.988281 58.664062 C 163.171875 58.855469 163.304688 59.070312 163.460938 59.28125 C 163.574219 59.4375 163.722656 59.578125 163.816406 59.746094 C 163.964844 60.007812 164.050781 60.285156 164.15625 60.558594 C 164.207031 60.710938 164.300781 60.847656 164.339844 61.003906 C 164.460938 61.453125 164.523438 61.910156 164.523438 62.375 L 164.523438 197.109375 L 216.984375 166.890625 L 216.984375 98.015625 C 216.984375 97.554688 217.046875 97.089844 217.167969 96.652344 C 217.210938 96.492188 217.296875 96.355469 217.351562 96.203125 C 217.453125 95.929688 217.546875 95.648438 217.691406 95.390625 C 217.789062 95.222656 217.933594 95.085938 218.042969 94.925781 C 218.203125 94.71875 218.332031 94.5 218.515625 94.316406 C 218.667969 94.167969 218.855469 94.054688 219.027344 93.925781 C 219.222656 93.765625 219.394531 93.597656 219.601562 93.472656 L 219.609375 93.472656 L 282.570312 57.210938 C 283.382812 56.742188 284.253906 56.507812 285.191406 56.507812 C 286.128906 56.507812 287 56.742188 287.8125 57.210938 L 350.765625 93.472656 C 350.988281 93.601562 351.160156 93.765625 351.355469 93.917969 C 351.519531 94.046875 351.710938 94.167969 351.859375 94.3125 C 352.042969 94.5 352.175781 94.71875 352.332031 94.925781 C 352.449219 95.085938 352.59375 95.222656 352.6875 95.390625 C 352.835938 95.648438 352.921875 95.929688 353.027344 96.203125 C 353.085938 96.355469 353.171875 96.492188 353.210938 96.652344 Z M 342.898438 166.890625 L 342.898438 107.097656 L 320.867188 119.785156 L 290.433594 137.316406 L 290.433594 197.109375 L 342.90625 166.890625 Z M 279.945312 275.058594 L 279.945312 215.226562 L 250.007812 232.332031 L 164.515625 281.140625 L 164.515625 341.539062 Z M 38.605469 71.453125 L 38.605469 275.058594 L 154.023438 341.535156 L 154.023438 281.148438 L 93.726562 247.011719 L 93.707031 246.996094 L 93.679688 246.984375 C 93.476562 246.867188 93.308594 246.695312 93.117188 246.550781 C 92.953125 246.421875 92.765625 246.316406 92.621094 246.171875 L 92.605469 246.152344 C 92.4375 245.988281 92.320312 245.785156 92.175781 245.601562 C 92.042969 245.425781 91.886719 245.273438 91.78125 245.089844 L 91.773438 245.070312 C 91.65625 244.875 91.585938 244.636719 91.5 244.414062 C 91.414062 244.21875 91.304688 244.035156 91.25 243.824219 L 91.25 243.820312 C 91.183594 243.570312 91.171875 243.308594 91.144531 243.050781 C 91.121094 242.855469 91.066406 242.660156 91.066406 242.460938 L 91.066406 101.671875 L 60.636719 84.132812 L 38.605469 71.457031 Z M 96.320312 32.167969 L 43.867188 62.375 L 96.308594 92.582031 L 148.753906 62.367188 L 96.308594 32.167969 Z M 123.597656 220.679688 L 154.027344 203.152344 L 154.027344 71.453125 L 131.996094 84.140625 L 101.5625 101.671875 L 101.5625 233.371094 Z M 285.191406 67.816406 L 232.746094 98.019531 L 285.191406 128.226562 L 337.632812 98.011719 Z M 279.945312 137.316406 L 249.507812 119.785156 L 227.476562 107.097656 L 227.476562 166.890625 L 257.90625 184.417969 L 279.945312 197.109375 Z M 159.261719 272.066406 L 236.191406 228.128906 L 274.644531 206.175781 L 222.238281 175.988281 L 161.894531 210.742188 L 106.902344 242.417969 Z M 159.261719 272.066406 " fill-opacity="1" fill-rule="evenodd"/></svg>